<svg class="svg-icon" style="width: 1em; height: 1em;vertical-align: middle;fill: currentColor;overflow: hidden;" viewBox="0 0 1024 1024" version="1.1" xmlns="http://www.w3.org/2000/svg"><path d="M512 96h-1.4c-110.8 0.4-214.8 43.8-293.2 122.2C139.2 296.8 96 401 96 512s43.2 215.2 121.6 293.8c78.2 78.4 182.4 121.8 293.2 122.2h1.4c229.4 0 416-186.6 416-416S741.4 96 512 96z m360.4 388h-155.2c-1.8-53.4-8.4-104.4-19.6-152.4 34.2-11 67.4-25 99.4-42 44 56.4 70 123.2 75.4 194.4zM484 484h-123.6c1.6-49 7.6-95.4 17.6-138.2 34.8 7.8 70.2 12.6 106 14.2v124z m0 56v123.8c-35.6 1.6-71.2 6.4-106 14.2-10-42.8-16-89.2-17.6-138H484z m56 0h122.6c-1.6 48.8-7.6 95.2-17.6 137.8-34.4-7.8-69.6-12.4-105-14V540z m0-56v-124c35.6-1.6 70.8-6.4 105-14 10 42.8 16 89 17.6 138H540z m218.8-235.8c-24.6 12.2-50 22.6-76 31-14.2-42.8-32.2-79.8-53-109 48 16.6 91.8 43.2 129 78zM630 293.6c-29.4 6.4-59.6 10.4-90 12V158.8c34 18.4 67.2 67.8 90 134.8zM484 158v147.4c-30.8-1.6-61.2-5.6-91-12.2 23.2-67.6 56.8-117 91-135.2z m-91.2 12.8c-20.6 29-38.4 65.8-52.6 108.2-25.6-8.4-50.8-18.8-75-30.8 36.8-34.6 80.2-61 127.6-77.4z m-165.8 119c31.6 16.8 64.6 30.8 98.4 41.6-11.4 47.8-18 99-19.6 152.4h-154c5.2-70.8 31.2-137.6 75.2-194zM151.6 540h154c1.8 53.4 8.4 104.6 19.6 152.4-33.8 11-66.8 25-98.4 41.6-43.8-56.2-69.8-123-75.2-194z m113.4 235.8c24.2-12 49.4-22.4 75.2-30.8 14.2 42.6 32 79.2 52.6 108.4-47.4-16.8-90.8-43-127.8-77.6z m128-45.2c29.8-6.6 60.4-10.6 91-12.2V866c-34.4-18.2-67.8-67.8-91-135.4z m147 134.6v-147c30.4 1.6 60.6 5.6 90 12-22.8 67.2-56 116.6-90 135z m90-11.4c20.8-29.2 38.8-66.2 53-109 26 8.4 51.6 19 76 31.2-37.2 34.6-81.2 61.2-129 77.8z m167-119.6c-32-17-65.2-31-99.4-42 11.2-47.8 17.8-98.8 19.6-152.2h155.2c-5.4 71-31.2 137.8-75.4 194.2z" fill="" /></svg>